<svg xmlns="http://www.w3.org/2000/svg" viewBox="0 0 100.71 112.82"><defs><style>.cls-1{fill:#86c3d0;}.cls-2{fill:#fff;}.cls-3{font-size:12px;fill:#1d1d1b;font-family:MyriadPro-Regular, Myriad Pro;}.cls-4{letter-spacing:0.01em;}.cls-5{letter-spacing:0em;}</style></defs><g id="API"><path class="cls-1" d="M50.35,13.37a43,43,0,1,0,43.05,43A43,43,0,0,0,50.35,13.37Z"/><path class="cls-2" d="M48.8,57.92a5.2,5.2,0,1,1,5.2-5.2A5.2,5.2,0,0,1,48.8,57.92Zm0-8.7a3.51,3.51,0,1,0,3.51,3.5A3.5,3.5,0,0,0,48.8,49.22Z"/><path class="cls-2" d="M63.39,43.84A3.89,3.89,0,1,1,67.28,40,3.89,3.89,0,0,1,63.39,43.84Zm0-6.09a2.2,2.2,0,1,0,2.2,2.2A2.2,2.2,0,0,0,63.39,37.75Z"/><path class="cls-2" d="M39.59,42.24a3.89,3.89,0,1,1,3.89-3.89A3.89,3.89,0,0,1,39.59,42.24Zm0-6.09a2.2,2.2,0,1,0,2.2,2.2A2.2,2.2,0,0,0,39.59,36.15Z"/><path class="cls-2" d="M36.54,70a3.89,3.89,0,1,1,3.89-3.89A3.89,3.89,0,0,1,36.54,70Zm0-6.09a2.2,2.2,0,1,0,2.2,2.2A2.21,2.21,0,0,0,36.54,63.87Z"/><path class="cls-2" d="M56.2,78.36a3.89,3.89,0,1,1,3.89-3.89A3.89,3.89,0,0,1,56.2,78.36Zm0-6.09a2.2,2.2,0,1,0,2.2,2.2A2.2,2.2,0,0,0,56.2,72.27Z"/><path class="cls-2" d="M64.16,63.09a3.89,3.89,0,1,1,3.89-3.89A3.89,3.89,0,0,1,64.16,63.09Zm0-6.09a2.2,2.2,0,1,0,2.21,2.2A2.21,2.21,0,0,0,64.16,57Z"/><path class="cls-2" d="M55.18,72.27a.84.84,0,0,1-.8-.58L49.59,57.34a.84.84,0,1,1,1.6-.54L56,71.16a.83.83,0,0,1-.8,1.11Z"/><path class="cls-2" d="M62,57.92a.81.81,0,0,1-.37-.09l-8.84-4.35A.85.85,0,1,1,53.52,52l8.84,4.35A.85.85,0,0,1,62,57.92Z"/><path class="cls-2" d="M50.39,49.52a.85.85,0,0,1-.72-.4A.83.83,0,0,1,49.94,48l10.73-6.7a.85.85,0,0,1,.9,1.44L50.83,49.39A.78.78,0,0,1,50.39,49.52Z"/><path class="cls-2" d="M46,50.2a.83.83,0,0,1-.72-.41l-5-8.34a.85.85,0,0,1,1.45-.87l5,8.35a.83.83,0,0,1-.29,1.15A.88.88,0,0,1,46,50.2Z"/><path class="cls-2" d="M38,64.23a.84.84,0,0,1-.65-1.38l7.06-8.49a.85.85,0,1,1,1.3,1.08l-7.06,8.49A.85.85,0,0,1,38,64.23Z"/></g><g id="HOSTING"><text class="cls-3" transform="translate(17.93 -4.98)"><tspan class="cls-4">D</tspan><tspan x="8.16" y="0">ynamic </tspan><tspan class="cls-5" x="46.99" y="0">R</tspan><tspan x="53.5" y="0">outing</tspan></text></g></svg>